<?xml version="1.0" standalone="no"?>
<!DOCTYPE svg PUBLIC "-//W3C//DTD SVG 20010904//EN"
 "http://www.w3.org/TR/2001/REC-SVG-20010904/DTD/svg10.dtd">
<svg version="1.0" xmlns="http://www.w3.org/2000/svg"
 width="265.000000pt" height="265.000000pt" viewBox="0 0 265.000000 265.000000"
 preserveAspectRatio="xMidYMid meet">
<metadata>
Created by potrace 1.11, written by Peter Selinger 2001-2013
</metadata>
<g transform="translate(0.000000,265.000000) scale(0.100000,-0.100000)"
fill="#000000" stroke="none">
<path d="M2503 2529 c76 -76 114 -119 100 -116 -19 4 -21 1 -20 -29 1 -19 5
-34 8 -34 4 0 11 -19 17 -42 8 -32 8 -45 -1 -51 -8 -6 -6 -7 5 -3 13 4 20 -3
27 -27 8 -29 9 -28 10 24 1 31 -4 60 -11 67 -9 9 -9 12 0 12 9 0 12 42 12 160
l0 160 -95 0 c-52 0 -95 -2 -95 -4 0 -2 42 -45 93 -95 50 -50 87 -91 81 -91
-6 0 -54 43 -107 95 -70 69 -103 95 -121 95 -21 0 -7 -18 97 -121z"/>
<path d="M1292 2398 c-21 -21 -22 -21 -16 -3 6 16 5 18 -7 8 -7 -7 -21 -13
-30 -13 -10 0 -20 -8 -24 -17 -5 -16 -92 -79 -105 -76 -3 1 -13 5 -22 8 -14 5
-18 2 -18 -13 0 -23 -14 -36 -50 -47 -47 -15 -160 -114 -202 -178 -15 -23 -28
-36 -28 -29 0 7 -4 10 -10 7 -5 -3 -10 0 -11 7 0 7 -4 4 -8 -7 -6 -15 -3 -23
13 -33 13 -8 15 -11 4 -8 -11 3 -15 1 -12 -8 3 -8 1 -17 -5 -21 -16 -9 -14
-48 2 -39 6 4 5 -1 -5 -12 -11 -12 -15 -29 -11 -49 3 -22 2 -26 -6 -15 -8 12
-11 12 -17 -3 -9 -25 13 -48 26 -27 15 23 12 -3 -5 -43 -8 -19 -11 -38 -7 -42
4 -5 2 -5 -4 -2 -13 7 -24 -35 -24 -90 0 -19 -4 -42 -10 -52 -7 -14 -5 -23 10
-36 36 -33 18 -95 -26 -95 -17 0 -28 -7 -31 -18 -3 -13 -13 -18 -34 -17 -23 1
-27 -1 -17 -12 8 -10 8 -17 -1 -26 -9 -9 -14 -9 -21 3 -8 13 -11 12 -24 -5 -9
-11 -16 -23 -16 -27 0 -11 39 -79 67 -116 19 -26 22 -37 14 -45 -8 -8 -14 -8
-19 -2 -4 6 -27 28 -50 50 -35 32 -42 36 -42 19 0 -10 11 -31 25 -46 30 -33
30 -34 5 -41 -17 -4 -19 -11 -14 -31 5 -22 3 -25 -10 -20 -14 6 -16 1 -10 -34
5 -34 3 -42 -15 -51 -12 -7 -20 -8 -19 -4 3 13 -14 77 -24 90 -5 6 -16 9 -24
6 -8 -3 -21 3 -29 13 -8 11 -15 14 -15 7 0 -6 4 -14 9 -18 5 -3 13 -19 16 -36
4 -19 10 -27 14 -20 6 9 10 9 18 -1 18 -23 24 -51 13 -58 -15 -9 20 -82 36
-76 7 3 29 8 48 12 63 11 42 -35 -29 -65 -16 -7 -41 -20 -55 -29 -14 -9 -29
-17 -35 -18 -5 0 -16 -2 -22 -2 -8 -1 -13 -17 -13 -42 0 -27 -4 -40 -13 -40
-16 0 -91 79 -101 106 -6 15 -9 16 -16 4 -6 -9 -5 -17 2 -21 6 -4 8 -15 4 -25
-6 -16 -8 -16 -16 -4 -8 12 -10 11 -11 -5 -1 -11 -2 -28 -1 -38 2 -22 -17 -22
-34 1 -18 25 -40 3 -25 -26 14 -26 0 -67 -29 -82 -18 -10 -22 -7 -34 21 -13
31 -14 31 -21 10 -4 -13 -1 -43 5 -68 10 -33 10 -47 1 -56 -15 -15 -26 -3 -61
69 l-28 59 -1 -37 c-1 -27 3 -38 13 -38 16 0 42 -102 31 -120 -11 -18 -33 -11
-38 13 -2 12 -5 -103 -6 -255 l-1 -278 135 0 c103 0 137 3 141 13 10 26 101
86 252 165 196 103 277 163 347 257 16 22 34 44 40 48 5 5 -1 5 -14 2 -17 -5
-21 -4 -16 5 4 6 18 10 31 7 24 -4 74 31 74 51 0 16 -32 23 -46 11 -9 -7 -28
-9 -51 -4 l-38 8 28 9 c15 5 27 14 27 20 0 5 19 8 43 6 l42 -3 3 39 c2 21 1
45 -2 53 -6 13 -9 13 -31 -1 -13 -9 -35 -16 -47 -16 -13 0 -36 -7 -52 -15 -15
-8 -34 -15 -40 -15 -8 0 -11 -11 -8 -30 2 -17 8 -30 13 -30 4 0 7 -17 5 -37
-1 -21 -5 -37 -9 -36 -4 1 -22 5 -40 9 -30 6 -31 7 -9 15 15 6 22 17 22 34 0
16 -4 24 -10 20 -6 -4 -23 1 -37 10 l-26 18 24 17 c13 10 29 33 35 52 7 18 13
26 13 18 1 -10 12 -17 29 -18 21 -2 32 5 45 28 10 17 25 30 33 30 17 0 18 -12
3 -27 -6 -6 -8 -16 -5 -21 9 -16 46 -2 46 17 0 10 11 24 26 31 l25 14 -6 130
c-5 105 -12 151 -37 231 -16 55 -32 106 -34 113 -3 10 -9 10 -25 2 -28 -16
-49 -6 -49 24 0 13 -9 53 -20 88 -21 68 -25 91 -11 69 7 -10 11 -5 16 18 9 42
22 31 20 -16 -1 -21 2 -45 6 -55 11 -20 47 -13 48 10 1 75 45 282 73 354 19
45 42 110 53 143 10 33 25 67 32 76 7 8 13 21 13 27 0 7 6 12 14 12 7 0 16 9
19 19 3 14 17 21 51 26 41 6 54 3 109 -25 34 -18 82 -43 107 -56 25 -13 71
-26 103 -30 39 -4 57 -11 57 -21 0 -7 -7 -16 -15 -19 -8 -4 -15 -12 -15 -19 0
-7 -5 -15 -11 -17 -16 -5 10 -77 34 -92 9 -6 17 -16 17 -22 0 -7 15 -12 34
-12 19 0 43 -3 55 -7 17 -5 21 -2 21 14 0 28 28 27 32 -1 2 -15 11 -24 26 -26
12 -2 28 -12 35 -23 7 -11 23 -19 39 -19 24 0 28 4 28 30 0 23 -4 30 -20 30
-11 0 -20 6 -20 13 0 31 -83 77 -140 77 -28 0 -40 4 -38 12 13 37 139 19 182
-26 31 -33 56 -65 56 -73 0 -3 7 -11 15 -17 11 -8 20 -51 31 -151 15 -131 14
-204 -2 -317 -5 -33 -3 -48 5 -48 6 0 11 7 11 15 0 8 12 22 28 32 34 22 43 34
37 53 -3 8 -1 29 4 45 l8 30 13 -26 c10 -22 9 -32 -4 -58 -9 -17 -12 -31 -7
-31 5 0 13 9 16 21 4 11 9 18 13 15 3 -4 -4 -19 -15 -34 -11 -15 -26 -45 -34
-67 -8 -22 -18 -43 -24 -47 -16 -12 -55 -9 -55 5 0 6 -4 18 -9 26 -7 11 -15 7
-39 -17 -20 -20 -32 -27 -36 -19 -3 7 -3 0 0 -15 4 -17 2 -28 -5 -28 -6 0 -11
5 -11 11 0 6 -7 4 -15 -5 -8 -8 -15 -24 -15 -35 0 -15 -6 -21 -24 -21 -13 0
-35 -12 -49 -26 l-26 -25 -11 21 c-8 14 -15 18 -23 12 -25 -20 -127 -37 -127
-22 0 13 -81 59 -125 71 -54 15 -153 -12 -186 -52 -25 -31 -26 -31 -44 -13
-15 15 -18 16 -13 3 4 -9 2 -21 -4 -27 -6 -6 -7 -22 -3 -39 5 -15 8 -31 7 -35
-1 -5 2 -8 7 -8 6 0 6 -10 1 -27 -15 -43 -8 -202 9 -212 17 -11 12 -94 -19
-338 -11 -86 -18 -159 -15 -163 2 -4 16 -5 31 -2 30 6 135 -41 170 -76 28 -27
54 -29 47 -4 -2 10 3 51 11 92 9 41 16 89 16 107 0 20 7 36 18 43 12 8 13 13
5 16 -7 3 -13 15 -13 27 1 46 29 -26 31 -78 1 -27 4 -41 6 -30 3 11 10 26 16
33 5 7 7 15 3 19 -3 3 -6 0 -7 -8 0 -8 -8 15 -17 51 -12 46 -15 75 -9 98 5 19
6 40 3 48 -3 9 -1 12 4 9 6 -3 10 -12 10 -19 0 -14 67 -10 76 5 3 5 12 2 21
-6 12 -13 18 -13 31 -3 14 12 13 13 -1 16 -18 4 -24 32 -6 32 12 0 -19 60 -41
77 -11 9 -17 9 -22 0 -5 -7 -8 -3 -8 11 0 13 4 20 10 17 6 -3 10 4 10 17 0 24
13 50 24 49 8 -2 64 27 83 43 43 34 65 60 111 132 18 28 41 61 51 73 19 22 19
22 23 -44 1 -37 0 -74 -3 -83 -13 -37 -17 -101 -6 -99 6 1 13 -9 14 -23 2 -22
2 -23 -6 -5 -11 23 -12 18 -15 -48 -1 -27 2 -51 7 -54 5 -3 3 -10 -4 -15 -10
-6 -7 -7 9 -3 14 4 22 2 22 -6 0 -10 3 -10 12 -1 16 16 28 15 28 0 0 -16 -49
-69 -98 -105 -20 -15 -56 -47 -80 -70 -24 -24 -48 -43 -52 -43 -5 0 -20 -11
-34 -25 -14 -14 -30 -25 -35 -25 -18 0 -51 -34 -40 -40 15 -10 1 -34 -31 -54
-29 -17 -40 -36 -21 -36 20 0 83 69 75 82 -4 7 2 5 13 -5 38 -33 80 -19 145
48 32 32 58 62 58 66 0 9 31 23 46 21 6 -1 16 16 23 37 14 48 40 79 51 60 6
-8 17 -1 39 22 28 32 35 48 32 75 -1 6 6 17 14 24 8 7 15 20 15 29 1 13 3 13
18 -4 10 -11 47 -35 82 -54 231 -121 410 -207 461 -222 24 -7 58 -21 74 -31
17 -10 33 -18 38 -18 4 0 7 92 7 204 l0 204 -32 7 c-129 29 -262 140 -308 256
-35 89 -48 179 -35 244 2 11 4 38 4 60 1 31 4 37 12 25 8 -11 9 -7 5 17 -4 25
-2 31 9 26 8 -3 15 -1 16 3 2 50 14 100 23 106 6 5 2 8 -11 8 -12 0 -24 4 -28
9 -5 10 13 8 58 -4 19 -5 20 -5 4 5 -28 18 -85 20 -91 3 -4 -9 -14 -13 -26
-10 -12 3 -20 -1 -23 -12 -3 -10 -5 -8 -6 7 -1 14 -6 22 -13 20 -8 -3 -12 -19
-9 -44 1 -21 0 -36 -4 -32 -3 3 -6 31 -6 62 0 31 -5 58 -10 61 -5 4 -9 -8 -9
-26 0 -49 -14 -24 -16 29 -2 52 -16 154 -33 251 -12 66 -53 174 -76 201 -7 8
-24 38 -38 65 -14 28 -40 64 -57 80 -18 17 -49 55 -70 85 -21 30 -46 62 -56
71 -35 31 -211 118 -243 121 -17 1 -31 5 -31 8 0 4 -28 3 -61 -2 -46 -6 -74
-4 -112 7 -63 19 -58 19 -85 -7z m-452 -338 c-6 -11 -12 -20 -14 -20 -2 0 -2
9 1 20 3 11 9 20 15 20 5 0 4 -9 -2 -20z m51 -63 c-10 -9 -11 -8 -5 6 3 10 9
15 12 12 3 -3 0 -11 -7 -18z m-104 -119 c-3 -8 -6 -5 -6 6 -1 11 2 17 5 13 3
-3 4 -12 1 -19z m-60 -433 c9 -25 -2 -27 -27 -5 l-23 20 22 0 c12 0 24 -7 28
-15z m1590 -37 c-3 -8 -6 -5 -6 6 -1 11 2 17 5 13 3 -3 4 -12 1 -19z m-1633
-4 c3 -8 2 -12 -4 -9 -6 3 -10 10 -10 16 0 14 7 11 14 -7z m1456 -20 c0 -8 -6
-11 -15 -8 -8 4 -15 15 -15 26 0 17 3 18 15 8 8 -7 15 -19 15 -26z m160 16 c0
-5 -7 -10 -16 -10 -8 0 -12 5 -9 10 3 6 10 10 16 10 5 0 9 -4 9 -10z m-1553
-102 c-3 -8 -6 -5 -6 6 -1 11 2 17 5 13 3 -3 4 -12 1 -19z m1327 -34 c3 -8 2
-12 -4 -9 -6 3 -10 10 -10 16 0 14 7 11 14 -7z m5 -77 c-1 -18 -3 -24 -6 -14
-2 9 -8 15 -12 12 -5 -2 -6 7 -3 20 6 34 22 21 21 -18z m-1245 -53 c19 -7 21
-49 4 -60 -6 -4 -40 -9 -75 -10 -61 -4 -63 -3 -63 21 0 40 80 70 134 49z m-14
-239 c0 -20 -39 -40 -53 -26 -7 7 -6 15 3 26 16 19 50 20 50 0z m55 5 c-3 -5
-10 -10 -16 -10 -5 0 -9 5 -9 10 0 6 7 10 16 10 8 0 12 -4 9 -10z m-547 -173
c2 -10 -3 -17 -12 -17 -9 0 -16 2 -16 4 0 2 -3 12 -6 21 -5 13 -2 16 12 13 10
-2 20 -11 22 -21z m-158 -104 c-1 -20 -18 -33 -35 -27 -17 7 -17 8 1 21 20 14
34 17 34 6z m150 -33 c0 -5 -7 -10 -16 -10 -8 0 -12 5 -9 10 3 6 10 10 16 10
5 0 9 -4 9 -10z m-90 -4 c0 -11 -19 -15 -25 -6 -3 5 1 10 9 10 9 0 16 -2 16
-4z m459 -8 c11 -10 14 -10 18 0 7 19 33 14 33 -7 0 -14 -10 -20 -37 -24 -42
-7 -57 1 -47 26 7 20 15 21 33 5z m716 -53 c-4 -25 -9 -44 -12 -41 -2 2 -1 25
2 51 4 25 9 44 12 41 2 -2 1 -25 -2 -51z m-68 -42 c-3 -10 -5 -4 -5 12 0 17 2
24 5 18 2 -7 2 -21 0 -30z m-723 21 c20 -8 9 -34 -15 -34 -18 0 -26 20 -12 33
8 8 8 8 27 1z m226 -24 c0 -5 -4 -10 -9 -10 -6 0 -13 5 -16 10 -3 6 1 10 9 10
9 0 16 -4 16 -10z m-305 -30 c3 -5 1 -10 -4 -10 -6 0 -11 5 -11 10 0 6 2 10 4
10 3 0 8 -4 11 -10z m34 -19 c-15 -5 -22 6 -14 19 6 9 10 9 16 -1 5 -8 4 -15
-2 -18z m758 -3 c-3 -8 -6 -5 -6 6 -1 11 2 17 5 13 3 -3 4 -12 1 -19z m-647
-8 c11 -7 7 -10 -17 -10 -22 0 -33 -5 -33 -15 0 -17 -58 -30 -91 -20 -19 6
-21 4 -17 -19 3 -15 0 -31 -8 -37 -11 -9 -14 -7 -14 10 0 16 -6 20 -22 18 -18
-1 -24 4 -26 24 -5 42 19 54 75 35 44 -15 49 -15 82 3 43 22 52 24 71 11z
m-257 -80 c6 -22 -7 -35 -23 -25 -15 9 -12 45 4 45 7 0 16 -9 19 -20z m212
-30 c3 -5 1 -10 -4 -10 -6 0 -11 5 -11 10 0 6 2 10 4 10 3 0 8 -4 11 -10z
m-381 -32 c9 -12 16 -28 16 -35 0 -24 -16 -13 -33 22 -19 39 -7 47 17 13z
m211 12 c3 -6 -1 -13 -10 -16 -19 -8 -30 0 -20 15 8 14 22 14 30 1z m-151 -61
c-3 -5 -10 -7 -15 -3 -5 3 -7 10 -3 15 3 5 10 7 15 3 5 -3 7 -10 3 -15z m-117
-14 c8 -22 -6 -33 -17 -15 -13 20 -12 30 0 30 6 0 13 -7 17 -15z m83 -35 c0
-11 -4 -20 -9 -20 -5 0 -7 9 -4 20 3 11 7 20 9 20 2 0 4 -9 4 -20z m-74 -102
c-7 -38 -13 -45 -25 -32 -14 14 -1 64 16 64 12 0 14 -7 9 -32z m-86 -39 c0 -5
-4 -9 -10 -9 -5 0 -10 7 -10 16 0 8 5 12 10 9 6 -3 10 -10 10 -16z"/>
<path d="M696 2112 c5 -5 23 -14 39 -20 l30 -13 -25 21 c-23 18 -66 30 -44 12z"/>
<path d="M658 2104 c-8 -8 3 -44 13 -44 5 0 9 11 9 25 0 24 -10 32 -22 19z"/>
<path d="M136 2011 c-4 -7 -5 -15 -2 -18 9 -9 19 4 14 18 -4 11 -6 11 -12 0z"/>
<path d="M104 1976 c-5 -13 -9 -14 -14 -6 -4 7 -13 9 -19 6 -16 -10 -13 -26 5
-26 11 0 14 -6 9 -20 -5 -15 0 -21 20 -26 14 -3 29 -3 33 0 3 4 -4 9 -15 12
-21 6 -21 7 -6 31 12 18 13 27 5 35 -8 8 -13 7 -18 -6z"/>
<path d="M43 1933 c-9 -3 -11 -17 -6 -45 4 -28 3 -39 -5 -35 -6 5 -8 0 -5 -12
3 -10 0 -22 -6 -25 -6 -4 -11 -17 -10 -29 0 -21 1 -21 8 -3 7 19 8 19 13 -2
10 -36 24 -25 20 16 -2 20 1 48 7 62 8 21 10 22 11 5 0 -15 2 -17 9 -6 7 11
10 10 15 -5 7 -23 43 -47 56 -39 6 4 10 17 10 31 0 15 -4 23 -11 19 -14 -9
-69 14 -69 29 0 19 -24 44 -37 39z"/>
<path d="M206 1914 c-9 -24 -7 -62 4 -69 6 -4 10 12 10 39 0 48 -4 56 -14 30z"/>
<path d="M1193 1917 c-38 -15 -31 -34 14 -35 40 -1 93 -28 93 -48 0 -11 -6
-13 -20 -9 -34 11 -96 8 -125 -6 -32 -16 -92 -86 -82 -96 4 -3 18 -1 32 5 14
7 50 12 80 12 45 0 56 4 65 21 9 16 14 18 26 8 8 -6 14 -18 14 -26 0 -8 7 -13
18 -11 9 2 16 12 15 22 -1 12 2 15 9 8 7 -7 20 1 39 23 26 29 28 36 18 59 -7
14 -15 26 -19 26 -4 0 -19 12 -33 26 -31 31 -94 40 -144 21z"/>
<path d="M62 1810 c2 -32 7 -45 18 -45 8 0 19 -4 23 -10 5 -6 6 -2 3 8 -3 10
-6 26 -7 35 0 11 -2 12 -6 5 -8 -21 -19 -14 -21 14 -1 14 -5 29 -8 32 -3 3 -4
-14 -2 -39z"/>
<path d="M160 1770 c0 -18 4 -29 10 -25 6 3 10 15 10 25 0 10 -4 22 -10 25 -6
4 -10 -7 -10 -25z"/>
<path d="M436 1784 c-8 -21 -3 -26 28 -28 31 -1 31 -4 9 -28 -24 -27 -12 -30
26 -7 42 25 39 53 -7 57 -17 2 -32 7 -32 13 0 15 -17 10 -24 -7z"/>
<path d="M340 1684 c0 -8 5 -12 10 -9 6 3 10 10 10 16 0 5 -4 9 -10 9 -5 0
-10 -7 -10 -16z"/>
<path d="M493 1652 c-18 -9 -33 -22 -33 -29 0 -15 31 -5 46 16 6 8 18 11 27 8
11 -4 14 -2 10 9 -6 17 -10 17 -50 -4z"/>
<path d="M387 1653 c-4 -3 -7 -15 -7 -25 0 -22 15 -16 30 13 8 14 7 19 -3 19
-8 0 -17 -3 -20 -7z"/>
<path d="M60 1615 c-28 -38 -40 -44 -40 -17 0 9 -4 24 -10 32 -6 9 -9 -25 -9
-98 0 -62 4 -112 9 -112 5 0 4 -13 -1 -29 -6 -17 -9 -39 -7 -51 3 -20 4 -20
29 4 15 14 29 31 31 38 4 11 8 10 21 -1 15 -12 17 -11 17 9 0 13 -7 32 -17 42
-13 15 -14 23 -5 44 7 14 9 36 6 49 -4 18 -1 27 10 31 17 7 22 39 7 48 -5 3
-7 15 -4 26 8 30 -9 23 -37 -15z"/>
<path d="M2613 1638 c4 -12 -2 -20 -21 -27 l-27 -9 26 -1 c30 -1 43 18 27 40
-8 11 -9 11 -5 -3z"/>
<path d="M301 1616 c-16 -19 -11 -29 8 -17 7 5 12 14 9 21 -3 9 -8 7 -17 -4z"/>
<path d="M517 1605 c6 -18 37 -29 41 -16 2 6 8 9 12 6 5 -3 11 -1 15 5 7 11 6
11 -42 15 -22 2 -30 -1 -26 -10z"/>
<path d="M671 1604 c0 -11 3 -14 6 -6 3 7 2 16 -1 19 -3 4 -6 -2 -5 -13z"/>
<path d="M2637 1603 c-10 -9 -9 -23 1 -23 5 0 9 7 9 15 0 17 -1 18 -10 8z"/>
<path d="M624 1588 c-11 -17 6 -22 22 -7 13 14 13 16 -1 16 -9 0 -18 -4 -21
-9z"/>
<path d="M335 1581 c-3 -5 -1 -12 5 -16 5 -3 10 1 10 9 0 18 -6 21 -15 7z"/>
<path d="M2570 1580 c-13 -8 -12 -10 3 -10 9 0 17 5 17 10 0 12 -1 12 -20 0z"/>
<path d="M1311 1567 c-7 -9 -10 -20 -7 -25 3 -6 -1 -15 -9 -22 -28 -23 -15
-29 52 -26 41 2 84 -2 110 -11 48 -16 84 -14 91 5 2 7 -5 16 -17 19 -11 3 -19
8 -17 12 3 4 -3 16 -12 28 -23 30 -170 45 -191 20z"/>
<path d="M264 1556 c-20 -22 -43 -73 -37 -80 10 -10 33 15 49 52 8 19 14 36
14 38 0 8 -16 3 -26 -10z"/>
<path d="M320 1535 c0 -9 5 -15 11 -13 6 2 11 8 11 13 0 5 -5 11 -11 13 -6 2
-11 -4 -11 -13z"/>
<path d="M620 1460 c-9 -6 -10 -10 -3 -10 6 0 15 5 18 10 8 12 4 12 -15 0z"/>
<path d="M1294 1401 c-17 -10 -44 -35 -61 -55 -27 -33 -32 -36 -45 -23 -13 13
-16 11 -28 -21 -8 -21 -15 -47 -15 -58 -1 -19 3 -20 27 -14 37 11 59 3 87 -32
21 -26 22 -32 11 -53 -7 -13 -18 -21 -26 -18 -8 3 -14 0 -14 -6 0 -6 8 -11 18
-11 9 0 26 -7 36 -15 22 -17 107 -20 122 -6 5 5 23 11 39 13 24 2 30 7 28 25
-2 15 10 32 40 55 23 18 44 36 45 40 2 5 17 8 33 8 41 0 56 38 31 79 -13 21
-22 27 -32 21 -16 -10 -40 -2 -60 20 -8 10 -33 29 -54 44 -49 33 -134 36 -182
7z m143 -77 c-3 -3 -12 -4 -19 -1 -8 3 -5 6 6 6 11 1 17 -2 13 -5z m-54 -68
c33 -3 61 -7 63 -9 11 -10 -46 -16 -70 -8 -17 7 -26 7 -30 -2 -3 -9 -7 -9 -14
1 -6 9 -16 10 -33 4 -30 -11 -59 -5 -59 12 0 9 13 12 43 10 23 -2 68 -6 100
-8z"/>
<path d="M184 1359 c-6 -27 -9 -51 -6 -54 7 -7 32 22 32 39 0 8 5 18 10 21 15
9 12 23 -8 34 -16 9 -20 4 -28 -40z"/>
<path d="M530 1399 c0 -5 5 -7 10 -4 6 3 10 8 10 11 0 2 -4 4 -10 4 -5 0 -10
-5 -10 -11z"/>
<path d="M0 1237 c0 -26 4 -47 9 -47 10 0 9 76 -2 86 -4 4 -7 -14 -7 -39z"/>
<path d="M146 1195 c-6 -17 2 -45 14 -45 10 0 21 41 14 52 -8 13 -21 9 -28 -7z"/>
<path d="M1115 1200 c3 -5 8 -10 11 -10 2 0 4 5 4 10 0 6 -5 10 -11 10 -5 0
-7 -4 -4 -10z"/>
<path d="M40 1185 c-9 -11 -7 -25 14 -69 15 -31 25 -59 24 -63 -4 -15 13 -112
20 -117 16 -10 59 42 66 80 l6 39 -16 -38 c-19 -43 -49 -47 -50 -7 0 14 -11
47 -23 73 -15 33 -20 57 -16 77 7 32 -7 47 -25 25z"/>
<path d="M282 1160 c0 -14 2 -19 5 -12 2 6 2 18 0 25 -3 6 -5 1 -5 -13z"/>
<path d="M1131 1151 c-16 -28 -14 -33 9 -26 16 5 19 3 14 -12 -4 -14 -3 -15 4
-4 10 14 5 48 -9 56 -4 3 -13 -3 -18 -14z"/>
<path d="M1 1043 c-1 -56 3 -93 9 -93 6 0 10 -9 10 -20 0 -11 -4 -20 -10 -20
-5 0 -10 -11 -10 -25 0 -21 5 -25 30 -25 25 0 30 4 30 24 0 14 -5 37 -11 53
-6 15 -12 49 -14 75 -2 26 -6 52 -10 58 -4 6 -11 24 -15 38 -6 19 -9 -2 -9
-65z"/>
<path d="M290 1115 c0 -9 7 -18 15 -21 8 -4 15 -15 15 -25 0 -10 5 -19 10 -19
6 0 13 -7 17 -16 6 -15 50 -64 58 -64 2 0 -13 36 -33 80 -30 65 -41 80 -59 80
-14 0 -23 -6 -23 -15z"/>
<path d="M235 1063 c-4 -16 -8 -36 -10 -45 -2 -11 12 -30 36 -49 41 -32 49
-53 24 -63 -26 -10 -16 -22 19 -23 30 -1 35 2 40 30 7 36 -2 97 -15 97 -5 0
-9 9 -9 20 0 11 -7 20 -15 20 -8 0 -20 9 -27 20 -18 28 -37 25 -43 -7z"/>
<path d="M1695 1060 c-3 -5 -1 -10 4 -10 6 0 11 5 11 10 0 6 -2 10 -4 10 -3 0
-8 -4 -11 -10z"/>
<path d="M111 868 c1 -7 5 -24 9 -38 7 -22 8 -21 9 13 1 20 -3 37 -9 37 -5 0
-10 -6 -9 -12z"/>
<path d="M60 824 c0 -16 7 -39 15 -50 15 -18 16 -17 9 16 -10 52 -23 72 -24
34z"/>
<path d="M0 773 c0 -25 3 -43 8 -39 9 10 9 86 0 86 -5 0 -8 -21 -8 -47z"/>
<path d="M1573 421 c1 -15 4 -17 14 -9 17 14 16 28 -1 28 -8 0 -14 -9 -13 -19z"/>
<path d="M1433 385 c0 -22 2 -30 4 -17 2 12 2 30 0 40 -3 9 -5 -1 -4 -23z"/>
<path d="M1865 410 c-3 -6 1 -7 9 -4 18 7 21 14 7 14 -6 0 -13 -4 -16 -10z"/>
<path d="M1865 391 c-11 -5 -23 -6 -28 -4 -4 2 -6 1 -5 -4 6 -17 -50 -73 -66
-67 -11 4 -16 0 -16 -12 0 -11 -18 -30 -43 -46 -23 -15 -58 -41 -77 -58 -19
-17 -77 -58 -128 -91 -93 -60 -116 -85 -51 -54 54 25 80 42 118 74 92 78 149
109 163 89 6 -9 8 -7 4 7 -4 15 3 27 25 45 17 14 40 33 52 44 12 10 32 25 45
33 12 9 22 21 22 28 0 7 6 16 13 18 6 3 8 5 2 6 -5 0 -19 -4 -30 -8z"/>
<path d="M1440 329 c0 -5 5 -7 10 -4 6 3 10 8 10 11 0 2 -4 4 -10 4 -5 0 -10
-5 -10 -11z"/>
<path d="M1475 250 c-3 -5 -1 -10 4 -10 6 0 11 5 11 10 0 6 -2 10 -4 10 -3 0
-8 -4 -11 -10z"/>
<path d="M1410 155 c-7 -9 -10 -18 -7 -22 8 -7 37 15 37 28 0 14 -16 11 -30
-6z"/>
<path d="M2529 153 c-13 -16 -12 -17 4 -4 9 7 17 15 17 17 0 8 -8 3 -21 -13z"/>
<path d="M2429 72 c-65 -66 -69 -72 -46 -72 20 0 36 13 69 58 24 31 47 60 53
64 5 4 6 10 2 14 -4 4 -39 -25 -78 -64z"/>
<path d="M1041 21 c-8 -5 -20 -7 -27 -4 -6 2 -15 0 -19 -6 -4 -8 21 -11 77
-11 80 0 82 1 54 15 -32 17 -64 19 -85 6z"/>
</g>
</svg>
